<svg id="Layer_1" data-name="Layer 1" xmlns="http://www.w3.org/2000/svg" xmlns:xlink="http://www.w3.org/1999/xlink" viewBox="0 0 643.23 418.47"><defs><style>.cls-1,.cls-10,.cls-2,.cls-3,.cls-4,.cls-6,.cls-7,.cls-8,.cls-9{fill:none;stroke-miterlimit:10;}.cls-1,.cls-10,.cls-2,.cls-3,.cls-4,.cls-7,.cls-8,.cls-9{stroke:#010101;stroke-width:0.68px;}.cls-2{stroke-dasharray:3.32 6.64;}.cls-3{stroke-dasharray:3.54 7.08;}.cls-4{stroke-dasharray:3.26 6.53;}.cls-5{opacity:0.7;}.cls-6{stroke:#fff;stroke-width:13.52px;stroke-dasharray:0.27 10.14;}.cls-7{stroke-dasharray:3.35 6.7;}.cls-8{stroke-dasharray:3.35 6.69;}.cls-9{stroke-dasharray:3.45 6.89;}.cls-10{stroke-dasharray:3.35 6.71;}.cls-11{fill:url(#linear-gradient);}.cls-12{fill:url(#linear-gradient-2);}.cls-13{fill:url(#radial-gradient);}</style><linearGradient id="linear-gradient" x1="11363.02" y1="6453.43" x2="11363.02" y2="6385.84" gradientTransform="translate(11533.17 6609.39) rotate(180)" gradientUnits="userSpaceOnUse"><stop offset="0" stop-color="#a89d35"/><stop offset="0.05" stop-color="#b0a647" stop-opacity="0.92"/><stop offset="0.28" stop-color="#ccc588" stop-opacity="0.63"/><stop offset="0.49" stop-color="#e2debc" stop-opacity="0.4"/><stop offset="0.68" stop-color="#f2f0e1" stop-opacity="0.23"/><stop offset="0.86" stop-color="#fcfbf7" stop-opacity="0.13"/><stop offset="1" stop-color="#fff" stop-opacity="0.1"/></linearGradient><linearGradient id="linear-gradient-2" x1="11326.69" y1="6420.31" x2="11326.69" y2="6378.07" xlink:href="#linear-gradient"/><radialGradient id="radial-gradient" cx="182.25" cy="204.79" r="39.24" gradientUnits="userSpaceOnUse"><stop offset="0" stop-color="#6b5c5e"/><stop offset="0.46" stop-color="#6e6062" stop-opacity="0.98"/><stop offset="0.63" stop-color="#7b6d6f" stop-opacity="0.9"/><stop offset="0.75" stop-color="#908587" stop-opacity="0.77"/><stop offset="0.85" stop-color="#afa7a8" stop-opacity="0.58"/><stop offset="0.94" stop-color="#d7d3d3" stop-opacity="0.34"/><stop offset="1" stop-color="#fff" stop-opacity="0.1"/></radialGradient></defs><title>cosmo_4</title><line class="cls-1" x1="364.46" y1="111.35" x2="363" y2="112.2"/><line class="cls-2" x1="357.26" y1="115.52" x2="248.14" y2="178.73"/><line class="cls-1" x1="245.27" y1="180.39" x2="243.81" y2="181.24"/><line class="cls-1" x1="148.12" y1="276.73" x2="147.28" y2="278.2"/><line class="cls-3" x1="143.75" y1="284.33" x2="103.14" y2="354.86"/><line class="cls-1" x1="101.38" y1="357.93" x2="100.54" y2="359.4"/><line class="cls-1" x1="218.53" y1="279.08" x2="219.38" y2="280.55"/><line class="cls-4" x1="222.64" y1="286.2" x2="284.6" y2="393.63"/><line class="cls-1" x1="286.23" y1="396.46" x2="287.08" y2="397.92"/><g class="cls-5"><path class="cls-6" d="M103.34,309.26S230.17,152.68,354,226.66s195-68,199.43-94.48" transform="translate(-53.83 -53.61)"/><path class="cls-6" d="M110.93,316.91c.13-.36,130.54-156.47,253.78-81S553.49,162.56,560.2,138.3" transform="translate(-53.83 -53.61)"/><path class="cls-6" d="M118.53,324.55c.25-.7,134.25-156.34,256.85-79.34S558,166.51,566.92,144.41" transform="translate(-53.83 -53.61)"/><path class="cls-6" d="M126.13,332.19c.38-1.05,138-156.22,259.92-77.7s176.4-84,187.6-104" transform="translate(-53.83 -53.61)"/><path class="cls-6" d="M133.72,339.84c.51-1.41,141.68-156.1,263-76.08s170.2-89.35,183.66-107.12" transform="translate(-53.83 -53.61)"/><path class="cls-6" d="M141.32,347.48c.63-1.76,145.39-156,266.07-74.44s164-94.68,179.71-110.28" transform="translate(-53.83 -53.61)"/><path class="cls-6" d="M148.91,355.12c.77-2.11,149.1-155.85,269.16-72.81s157.81-100,175.76-113.44" transform="translate(-53.83 -53.61)"/><path class="cls-6" d="M156.51,362.77c.89-2.47,152.81-155.73,272.23-71.18S580.36,186.26,600.56,175" transform="translate(-53.83 -53.61)"/><path class="cls-6" d="M164.1,370.41c1-2.82,156.53-155.6,275.31-69.54S584.83,190.21,607.28,181.1" transform="translate(-53.83 -53.61)"/><path class="cls-6" d="M171.7,378.06c1.14-3.17,160.24-155.49,278.38-67.92S589.31,194.16,614,187.22" transform="translate(-53.83 -53.61)"/><path class="cls-6" d="M179.29,385.7c1.28-3.52,164-155.36,281.46-66.28s133-121.31,160-126.09" transform="translate(-53.83 -53.61)"/><path class="cls-6" d="M186.89,393.34c1.4-3.87,167.67-155.24,284.53-64.64s126.85-126.63,156-129.25" transform="translate(-53.83 -53.61)"/><path class="cls-6" d="M194.49,401c1.52-4.23,171.37-155.12,287.6-63s120.65-132,152.1-132.41" transform="translate(-53.83 -53.61)"/><path class="cls-6" d="M202.08,408.63c1.66-4.58,175.09-155,290.69-61.38S607.22,210,640.92,211.68" transform="translate(-53.83 -53.61)"/><path class="cls-6" d="M209.68,416.28c1.78-4.94,178.8-154.88,293.76-59.76s108.26-142.6,144.2-138.73" transform="translate(-53.83 -53.61)"/><path class="cls-6" d="M217.27,423.92c1.91-5.29,182.52-154.75,296.84-58.12S616.18,217.87,654.37,223.91" transform="translate(-53.83 -53.61)"/><path class="cls-6" d="M224.87,431.56c2-5.63,186.23-154.62,299.91-56.48S620.65,221.82,661.1,230" transform="translate(-53.83 -53.61)"/><path class="cls-6" d="M232.46,439.21c2.17-6,189.94-154.51,303-54.86s89.68-158.58,132.37-148.21" transform="translate(-53.83 -53.61)"/><path class="cls-6" d="M240.06,446.85c2.29-6.34,193.65-154.38,306.06-53.22s83.49-163.91,128.43-151.38" transform="translate(-53.83 -53.61)"/><path class="cls-6" d="M247.65,454.49C250.07,447.8,445,300.24,556.8,402.9s77.29-169.23,124.47-154.53" transform="translate(-53.83 -53.61)"/><path class="cls-6" d="M255.25,462.14c2.55-7.05,201.08-154.14,312.22-50S638.56,237.62,688,254.48" transform="translate(-53.83 -53.61)"/><path class="cls-6" d="M262.84,469.78c2.68-7.4,204.8-154,315.3-48.32S643,241.58,694.73,260.6" transform="translate(-53.83 -53.61)"/></g><line class="cls-1" x1="122.12" y1="251.53" x2="120.65" y2="252.37"/><line class="cls-7" x1="114.85" y1="255.72" x2="4.54" y2="319.37"/><line class="cls-1" x1="1.63" y1="321.04" x2="0.17" y2="321.88"/><line class="cls-1" x1="124.74" y1="183.54" x2="123.28" y2="182.7"/><line class="cls-8" x1="117.48" y1="179.34" x2="24.8" y2="125.7"/><line class="cls-1" x1="21.91" y1="124.02" x2="20.45" y2="123.18"/><line class="cls-1" x1="75.19" y1="30.92" x2="76.04" y2="32.38"/><line class="cls-9" x1="79.48" y1="38.35" x2="144.99" y2="151.71"/><line class="cls-1" x1="146.71" y1="154.7" x2="147.56" y2="156.16"/><line class="cls-1" x1="307.69" y1="0.17" x2="306.85" y2="1.63"/><line class="cls-10" x1="303.5" y1="7.44" x2="219.77" y2="152.69"/><line class="cls-1" x1="218.1" y1="155.59" x2="217.25" y2="157.05"/><circle class="cls-11" cx="170.15" cy="189.75" r="33.79"/><circle class="cls-12" cx="206.48" cy="210.2" r="21.12"/><polygon class="cls-13" points="182.25 168.46 140.31 241.12 224.2 241.12 182.25 168.46"/></svg>