<svg id="Layer_1" data-name="Layer 1" xmlns="http://www.w3.org/2000/svg" xmlns:xlink="http://www.w3.org/1999/xlink" viewBox="0 0 562.47 567.97"><defs><style>.cls-1,.cls-10,.cls-11,.cls-2,.cls-3,.cls-4,.cls-5,.cls-6,.cls-7,.cls-8,.cls-9{fill:none;stroke:#fff;}.cls-1,.cls-11,.cls-2,.cls-3,.cls-4,.cls-5,.cls-6,.cls-7,.cls-8,.cls-9{stroke-miterlimit:10;}.cls-1,.cls-2,.cls-3,.cls-4,.cls-5,.cls-6,.cls-7,.cls-8,.cls-9{stroke-width:0.63px;}.cls-2{stroke-dasharray:1.58 4.73;}.cls-3{stroke-dasharray:1.59 4.78;}.cls-4{stroke-dasharray:1.58 4.73;}.cls-5{stroke-dasharray:1.57 4.7;}.cls-6{stroke-dasharray:1.56 4.69;}.cls-7{stroke-dasharray:1.57 4.72;}.cls-8{stroke-dasharray:1.57 4.72;}.cls-9{stroke-dasharray:1.59 4.76;}.cls-10{stroke-linecap:square;stroke-miterlimit:3.25;}.cls-10,.cls-11{stroke-width:0.95px;}.cls-12{fill:url(#linear-gradient);}.cls-13{fill:url(#linear-gradient-2);}.cls-14{opacity:0.6;}.cls-15{fill:url(#radial-gradient);}.cls-16{fill:url(#radial-gradient-2);}.cls-17{fill:url(#radial-gradient-3);}.cls-18{fill:url(#radial-gradient-4);}.cls-19{fill:url(#radial-gradient-5);}.cls-20{fill:url(#radial-gradient-6);}.cls-21{fill:#fff;}</style><linearGradient id="linear-gradient" y1="172.85" x2="107.36" y2="172.85" gradientUnits="userSpaceOnUse"><stop offset="0" stop-color="#c6cdd9"/><stop offset="1" stop-color="#8b7450"/></linearGradient><linearGradient id="linear-gradient-2" x1="430.9" y1="414.63" x2="562.47" y2="414.63" gradientUnits="userSpaceOnUse"><stop offset="0" stop-color="#595725"/><stop offset="1" stop-color="#637082"/></linearGradient><radialGradient id="radial-gradient" cx="3587.43" cy="-1126.18" r="209.67" gradientTransform="matrix(-0.4, 0.19, -1.45, -0.05, 211.45, -465.54)" gradientUnits="userSpaceOnUse"><stop offset="0" stop-color="#8b7450" stop-opacity="0.3"/><stop offset="0.18" stop-color="#9d896b" stop-opacity="0.28"/><stop offset="0.36" stop-color="#d2c9ba" stop-opacity="0.24"/><stop offset="0.46" stop-color="#fff" stop-opacity="0.2"/><stop offset="0.59" stop-color="#fbfcfd" stop-opacity="0.21"/><stop offset="0.64" stop-color="#eff3f7" stop-opacity="0.27"/><stop offset="0.67" stop-color="#d9e2ec" stop-opacity="0.36"/><stop offset="0.7" stop-color="#b9cadc" stop-opacity="0.48"/><stop offset="0.72" stop-color="#90aac7" stop-opacity="0.65"/><stop offset="0.74" stop-color="#5e84ae" stop-opacity="0.86"/><stop offset="0.76" stop-color="#3a699c"/><stop offset="0.76" stop-color="#4b76a5" stop-opacity="0.91"/><stop offset="0.78" stop-color="#7b9abd" stop-opacity="0.67"/><stop offset="0.81" stop-color="#a4bad1" stop-opacity="0.46"/><stop offset="0.83" stop-color="#c5d3e2" stop-opacity="0.29"/><stop offset="0.86" stop-color="#dfe7ef" stop-opacity="0.16"/><stop offset="0.89" stop-color="#f1f4f8" stop-opacity="0.07"/><stop offset="0.93" stop-color="#fcfdfd" stop-opacity="0.02"/><stop offset="0.99" stop-color="#fff" stop-opacity="0"/></radialGradient><radialGradient id="radial-gradient-2" cx="2632.42" cy="-694.69" r="209.67" gradientTransform="matrix(-0.31, 0.26, -1.39, -0.06, 278.18, -443.77)" xlink:href="#radial-gradient"/><radialGradient id="radial-gradient-3" cx="1875.44" cy="-353.92" r="209.67" gradientTransform="matrix(-0.21, 0.36, -1.31, -0.06, 360.21, -409.77)" xlink:href="#radial-gradient"/><radialGradient id="radial-gradient-4" cx="1275.68" cy="-85.17" r="209.67" gradientTransform="matrix(-0.11, 0.51, -1.22, -0.04, 457.24, -356.74)" xlink:href="#radial-gradient"/><radialGradient id="radial-gradient-5" cx="800.75" cy="126.42" r="209.67" gradientTransform="matrix(0, 0.71, -1.11, 0, 565.26, -275.91)" xlink:href="#radial-gradient"/><radialGradient id="radial-gradient-6" cx="289.41" cy="283.98" r="209.67" gradientTransform="matrix(1, 0, 0, 1, 0, 0)" xlink:href="#radial-gradient"/></defs><title>cosmo_2</title><line class="cls-1" x1="353.14" y1="317.79" x2="353.83" y2="318.19"/><line class="cls-2" x1="357.93" y1="320.56" x2="558.15" y2="436.14"/><line class="cls-1" x1="560.2" y1="437.32" x2="560.89" y2="437.72"/><line class="cls-1" x1="24.18" y1="127.78" x2="24.87" y2="128.17"/><line class="cls-3" x1="29" y1="130.56" x2="236.5" y2="250.42"/><line class="cls-1" x1="238.57" y1="251.62" x2="239.25" y2="252.01"/><line class="cls-1" x1="350.69" y1="254.17" x2="351.37" y2="253.77"/><line class="cls-4" x1="355.47" y1="251.41" x2="555.31" y2="136"/><line class="cls-1" x1="557.35" y1="134.82" x2="558.04" y2="134.42"/><line class="cls-1" x1="29.88" y1="439.62" x2="30.56" y2="439.22"/><line class="cls-5" x1="34.63" y1="436.87" x2="238.8" y2="318.79"/><line class="cls-1" x1="240.84" y1="317.61" x2="241.52" y2="317.22"/><line class="cls-1" x1="262.91" y1="343.58" x2="262.51" y2="344.26"/><line class="cls-6" x1="260.17" y1="348.33" x2="142.45" y2="552.02"/><line class="cls-1" x1="141.28" y1="554.05" x2="140.89" y2="554.74"/><line class="cls-1" x1="448.93" y1="21.2" x2="448.53" y2="21.88"/><line class="cls-7" x1="446.17" y1="25.97" x2="330.91" y2="225.81"/><line class="cls-1" x1="329.73" y1="227.86" x2="329.33" y2="228.54"/><line class="cls-1" x1="328.81" y1="341.38" x2="329.2" y2="342.07"/><line class="cls-8" x1="331.56" y1="346.15" x2="446.72" y2="545.68"/><line class="cls-1" x1="447.9" y1="547.73" x2="448.3" y2="548.41"/><line class="cls-1" x1="140.25" y1="14.87" x2="140.65" y2="15.56"/><line class="cls-9" x1="143.03" y1="19.68" x2="262.52" y2="226.63"/><line class="cls-1" x1="263.71" y1="228.69" x2="264.11" y2="229.38"/><path class="cls-10" d="M259.57,240.5l.24-.46,1-.35-3.79-.87L257,239l-.28.17.54-.5.31,1.53h0l-.71-.33,0-.73-.1-.08-1.25.61v1.06l-.57,1-1.82,0-.74.31-.81.35,0,0,.68.35-2.39-7.36-.44,0,1.71-1,.09.08,1.58,18.8h-.14v0l0,.16.08-.58-.14.05L232.92,252l5.58-.9,1.64.13.41.32.87-1.26-1.37-.18-.36-.46,16.92-11.75,1-.89-2.62-.41.57-2.14v.07l.14-.5.36-.51,1.27-.39.78-.39h0l-.64,2.11.59-.44.08.1.25.5,1.88.08-2.51-.74-.6.37.21.14-.48-.51-.1.05.2-.27-.57.8.29.09-.1,0-.48-1.49,0,.08h.4l-.79.37,1.23-.26-.11-.08,1,.13,2.5-2.15-.22.13-.77.14-3.75.28-.3,0,0,0,8.84-.72-.1-.38.85.73V232l-.19.3h0l.48-.29.3.2-1.7,3.92.67.27-.47.72-.35-.27-7.52,1.91.31-.48h0l.44-.4.39.14,1.2.4h-.24l-.63.39-.42.06-.79.14.73-.39-.42.47-39-27.82-1.2-.56.71-.65-3.87,4.71-.06.1-.83,1v-.12l2.22-1.85.09-.37.77-1.63-3.61.32-.07-.41.12-.09-.38-.18.19.07.07-.1.34.23-.35.35-.18-.34,0,.58.73-.12-.8.33-14.38,3.73.68.22-1.3-.52.13-.38-1.2,4.39h.29l-.21-.72-.36-.54,0-.1v.66l.07-1.63h1l-.21,1.22,1.1-1.11-.32-.7v.57l-.71-4.83L195,217.26l-1.63-1.35-.25,1.59-.93-1.55-1.75,2.57.9-.37,1.23-.45,0,.06,2.42.18,1.26.1-.13.13V218l-.56-.56,3.32,1-.24.37.06.06,0,.24-1.29.34v0l.74-.31.52-.61.35.43.05-.16.08-1.42.25-.22-.36.13,0-.32,3,6.5-.14-.19-8,15.18.15-2.72-.19.05-.16-.11-.94-2.88-.33.37L193,233l-.05-.36.87.48-.15-.18,1.69,1.41-.86,0-.32.25-2.86,3.77.47.44-.56,3.2-.29-6.3v0l5,5.65.2.61-.16-.11,0,0-.12,0L224.4,225l.81-.41.7.34-.46.75.11-.11.07-.07L223.37,229l1.92,3,.21-1,.18,0-.1-.07v.13l-.21.18-.12.1-1.12-.66.18-.05,2.21-2.37h0l-4.58-2.13.57,0-.1-.17-16-8.77.09-.42-.19-1.22-1.84.58,4-.62-.16-.18-1.36.54-.29-.11,2.19-1.21,4.8-.48.14.06.3-.39-.33,0-2.54-.72-.33,0-9.12.78-.11.05h-.08l-.09.09,1.15-.91.12-.11.12-.06h-.37l1-.33,3.05-2.13-3.68-2,.74.88,1.1.94.18-.41,0,.12.71-.39,0-.08,2.32-3.81-13.61,22.3.13-.09.3,1.24.27-.24-.14.15L195,229l.43-.56-.73,2,.2-1.11.74-.39.29,1.23,0-.09,1.24.11.47-.73,0,0-.25-.22.18,0,.17-.17-.92,0-.16.43.48-.15-.15,0-.28.34-5.8,2.91-.64.14-.2.4h.74l-17,24.51-.79-.45.86-.4.24-.18.23-.17-.21.22-.39-.37-.45.33,1.51-.82-.5.27.14-.65-.05.17.92.29,2.67-.4-3.72,2.41,1-.7-1.07-.9v-.2l.09-.07-1.07.39-.13.92-.27-.08-.05,0,1.63.43,2.08.06h-1.88v.05l-.2.1,3.65,5.76-.48-1.09.11.05.3.31.61,2.6.73,1,.24,1.07-.06.89-2.15-2.57-.55-.55,2.3-.26v-.23h0l-.39-.24-.38,0-7.31,3,.06.46,0,.21-2.26.4,0-.05-.56.52-.35.23.1-.35.09-.5,1.21-.06.41.2,0,.24.13.15-.38-.29-4.3,1.83-.44.27,0-.28-.11.36" transform="translate(-135.53 -8.64)"/><path class="cls-10" d="M190.88,402.24h0l-1.08.48-1.77-1-.52,2,2.67,1.37.44-.26-9-2.57-.46.1,2.35-1.4-.37.37-.88-.61-.92.77L180.16,403l5.9-5.94-7.7,6h0l-.12-.06-.43-.89-.43-1.43-1.91-.07,0-.14h0l-3.38,4,.35.51.11-.28.74.23-.95-.83-.48-.57,1.25-.14-1.65,3.87-.2.74-.43.28,1.69-3.44.17-.09.31-.24-.56-.14-.36.45h0l-.11-.07-1,.13.54-1.11.63-.21-.32.63-1.09,11.27-.76,2.28,0,.07-.29-.23-2,2.11,1.05-1.79-1.49-1.24.06,0-.33-.67-.78,0,.08.18,63.17-10.1,1.65.36.1-.67v.11l-.34.13.52.23,1.18,0-.24-.56-1.38-.08-.07-.21.1.27.37,0,.23-.5-.22,0-.08-.27,1.16-1.09.08.85-1.06.44h.15l-.23-.43.77-5.77-.38.11.77,0,.82.61h0l2.38.8h6.53l-3.21,1.68-.44.65.82.1.2.19,1.39-.49.55-.81-3.62,2.95.85-.81.66.28.1,2.49.19.2-.56.32.1.58,1-.23,0,.11,0-.57,2,0v-.57l-6.53,25.87.06.05-.52,1.42.51.82-.67.09.26-.42-.55-2,.2-.42.31-.09-.18,0-.3-.6.12-.19-.32-.07h0l-.26.45-.3-.05-.5,2.34-2.53,1.46.61-.93-.12-1.35-.61,0-.06.35-.51-.21.07,0,.42-2.76.62-.24.08.18,8.27-4-.12-.08-.43-.42-.44-2.12-.2.92-.81,1.37-.06,0-.1-.08-2.79-3.79-4.16,7.86-.24.55-.11,0-2.29.22-3.58-5.36.8-.51-.15-.05,2.85-1.76.1-.37.11,0-7.69,2.9,1.17-.67.24-.49h0l-.18.2,2.07-.16,2.25,4.7-.44.36-.07.46-.62.38-.09.05-1.39.68.27-.54,0,.44.23-.47.14.12.2-.37.42.49-.21.09-1.09.29-1,.42,1.61,1.83,0,.06-.14-.91-.52-.49.45.17.39-.87-3.87,4.43h-.07l0-.68L219,435l.13-.32,3.82-2.83.06-.08v.14l-.06.58.09-.29.2.25,1.11-1.12.26-.48,2.51-1.95-1,.78.67-.49,0,.35,1-1.44,1.79,1.27.35-.8,1.55,3,.05-.24-.69.72-.05.14,1.57,3.62.36-1.86,0,0-.06,0,3.15,6.05-.88.13-.53.05.6-.48-.53-.55.61.56-.1,0,.54-.64.18-3.78.43-.07,0,.2,1-1.39.8-1.69-4,3.72.71-.29.21.18.09.2-.07.21,0,1.17.11.15-1,.65-.6.59-1.66-.27.6-.15-1.42.35,6.46-7.29.33-.07v-.66l-1,.11.1.56h-.5l.43.42L231,434.48l-.36.28-2.79-.31-.53.81,1.79-1,.21-.14-.19.42,1.36,1.25,1.36-.74-1.5-2.57.24.2,0-.13,3.85,9.48-.11.3-4.11,2.39-1.16,1.95-.2-.7-.35-.43,1.29,1.29V446l-.94.22-.67-.05,7.68.23,1.09-.93-.33-.35,2.8,1.12v.19l-.19,0,1,1.06-.09.6,2-1.73,0-.12,3.34-.83,9.07-.89.2-7.76,4.13-.8-.16-.07-.65-.07,1.17,7.14-.5.07,1.68.34-3.51.59.76-.27-.15.41-.32,1.22-.11,0,30.71-31.45,1.5,6,.55-.27-.76.41-.2-.57.28.1-.12.42-4.22,3.64-.13-.05,2.23,2.79-.39.44-.07.7-2.66-5.69-.17.13.34.46.17-.64-.24-.2-.45.09.37.74-1.27,11.09,1.62-.59-.66-.15,1.08-.56-.49.18-.35,0-.06.28-1.6-1.4-2.47.8-.18.18v0l1.33-3.41,1.36-.3.14.3,2.42-4.9.43.42L234.75,249.7l.52-.9.86-.8.1.06-2.54-1.17.65.25h.56l-.43.27.82-.8-.07-.15h.37l.77-.51-.06-.07-.75.22-.86,1.21,1.26-1.17-2.31-3,.19.6-.29-.13,0-.34.4-.47-.12.39-.7.2-.17.2,1.29.1.09-.11h0l-.51.44,1.06.59-.09-.7,0,.58-.05,0,0,0,0,0-.61.35,0,.3-1.27.69-.27-.3-3.91,3.34-.35.84,1,.19-.31.34,1.2,1.71-.11.57,0,.28.09-.06-.32,3.41-1.13-58.32.65.89,1.56-1,1.07-.53.33.16,0,.15-.56.35,2.14-.76-1,5.27-.34.11h0l.82-4.19.21-.07-.16-.26-.55.5-.64,1.12v.05l-.49.11.23.45,0,.13-.28-.05h.12l-.16.17,2.82-2.68v-.23l-2,1.07-.69.86.63.49.12-.62-.13,0-.23.23,0,.19.62-.24,1-10.58-10.44-5.68.33.22-.84.81,0,.23h0l-1.06-.66-2.71,3.5-.62-.32.08.21-.33-.18,1.93-3-.24-.28,22.53-.9v0l-.31.4-.27.27,0,0,.68.33.61-.37-.27.11,0-.72-.8-.2.85.77-.6.84.2-1.51-.49.4.39-.64,0,.22L232,179.61l1.41-2.06-.79.34.67.2-.27.32.57-.16-.24-.68,0,0,.21.83.18.1v.08l-.3.07-.05-.11-.36.64-1.89-.72.59-.43-.11-.06-.13.18-.4.39-.68,1.32.09,0-.08,0h0l0,.71.13-.26,19.73-12.4,0-.07.4-.5,1.87-2.19-.65-.39.46.78-5.71,4-8.47,51.47,40-21.7,22.43,4.89-.31.74-.51.33,2.47,2.7h0l-.13-.08-1.22.87-.51.27,0,0,.72.25-.17.08-1.67,2.67.2,0,1.56,2.47.14-.1,8-4.05-1,.66-.48.13-.22.25-.79.78-.64,1-.39.23-.07.07.09-.11.61-.53-3.21-1.17.19-.56,16-21-2.4,5.71-.37-.35h.21l-.38-.13.18.36-.44.58.22-.21.05.13-1.32.13-.22-.22h0l.31-.19.06-.77-.19.22.7,1.91-.7.41h0l0,0h0l.49,0-.85,3.51-1.22-.71-2.12-1.62v-.43l0-.41L309,199.7l-.3.12.25.1.2-.09-1.85-.49-.05.14-.29,1.17-.87.43.08.35,1.17.79.94-.56-.79.84-.67-1.15-.12.16,5.18,6,1.93.39-.06-1.45-.11.06-1.79,1.91-.48-.16,0,.29-.05.18.2-.06h0l-.06-.13,8.29-2.31-3.56.81.2-.15-.41-.38-.28.19.76-.39-.75,1.51.22,0-1.54-3.67L310,214.13l1.92,5.6-2.75,1.38-.3-.43.22-.4,1.57.77,2.72-1-.28.19.18.31-.55-.89-1.22,2.8.39.31-1.28-2,.07-.06.1-.5-.45,4-1-.7-.83-.55.47-.82.8.72,0,.08L307,230.6H307l-2.41,1.34-.5.17.47.1-3.48,2.55-1.21-.16-.25.37.2.1-.59-1.49.45,2.09-7.46,2.68L294,238l.34,0-4.54,1.45-1.83-.46-.1.07H288l-.17,0-12.2,13.21.26,1.2.19.46-.58.16-.06-.31.14.25-.25-.44,3.53-1.43,11.47-12.86-.12.06,1.38-1.45-.32-.51h.25l-.2.09-.22-2.77-.39-.14.08-.54.16.35.12.18,1.87-.91.47,2-.21.11.52-.46.39-2.91-.09.09,1.17.29,1.87-.35-.8.16.21.06-.41.22,1.35.71.11.65,0-.17.64.14,1.37-.73-.34.19.06,0-2.05.37-.25.44v.09l4.74-2.94-2.64-.05.55-.16-3.72,3.58,0,.34L292,236l0-.07-3,2,.2.56,0-1.28.12,0v.18l0,1.38,0,0,1.11-4.64-.07-.08-.09.06-.24.39.16-.44.86,0-1-.7-.26,0-.38.8-.75,1.5h-.92l0-.17-.21-.1v0l2.89-1,.22.12.1.29-31.88,6-.57.49.81.45-.63-.37-.29.31" transform="translate(-135.53 -8.64)"/><path class="cls-11" d="M644.47,305.83l.12-.33-.14.21-.18-.44-2.17-3.75h-.45l.18,0,.09-.21.42.08.87.72-.21.42-.12.32-.13-.37-.13-.69h-.06l-1.46-1.56.09-.18.31-.31-3.78-6.29-.26-.24-.42,0v0l-.14.17,1.57,1.47-.72.1-3,.71.46-.69.78-.66,1.09-.33,1.9-1.59.39-.06.11,0-1,.55,5.92-2.25-.09-.19,0,0-1.39-1,1.57,1.12L646,291h-.05l-.24-.09.41-.76-.58-.88,0,.1-.11.15-1.29.08.35,1.07-1.42-3.86,1.76,1.78.85.3,0-.15-.25.56-.22-.48.66,1.45-.15-.5-.5.07,0-.29.08.26.07.26.42.78-.83-.11,1-27.68.55.42.07-.4-.4-.46-2.69-5.41,0-.4-.09-.11.27.38.12-.41-.66-.54,0,.22.11.12-.31,0v0l0,.81,1,.61,0,.09.9-.77.33.71-.47.94.59-1.91v.66l.14.31,0-.19.08.33.91-.76,0,.14,2.31-24.16-.4,4.13-.08,0,.32.68,0-.1-.1.41,1.35-.09,1-.24-3.86-.56,1.08,3.28.54.79-.27-.21,0,.11,0,.15.35,1.32,0-.12h0l0,0-.05-.1-6.35-5.66-.27-.16-2.28-.88-.22-.22v.46l.14,0,3.3,3,1,2.13-.28-.08-.71-1.16-.22,0,2.61,2.68-1-1.46-.83.8-.15.37-16.84-2.43-.16.07.44.3-4.59-1h0l.32,3,.12.14-1.21-.14,0-.14,0-.25.07-.1h-.11l.15.08-.39.85,3.09-1.15.29-3.9,0,.1v.14l.08-.82.71.14.37.76,11.79,28.34-.11,0h-.12l.48-.34,6.89-1.4v0h0l-3.73,4.52,1.37-2.69.59-.07,0-4.4-.1-.36-.66-.46,2-.11-.21.06.92.12-.24.24.35.42,0-.46-2.3,1.62h-.18l-.11-.14-1.41,2.1,2.54-15.73-.21.07,5.88-3.14-.2.21-.2-.29.07.3-.73,1.1-.06.15.5-.13.05.74.37.64,0,0,0-.05-.77-1,.1-.19.08,0,0-.41,3,1.15-.74.1-.12.16,0-.16,1,.62,1.9,1.22v0l.67,1,.46.78.14-2.88-1.56.63.7-1.32-2,.09,1.53-4-3.21,3.2.11-.15.22-.26-.63.34.2,1.43.52-1,.76.58-.86,1.25.38-.49-.08.06-.57.2-.55.43.22.16,1.55-3.94-.12.36-1.26-.34.64.22L642,236.16l-.41-.69.47.5.34-.42-.33.16-.06-.46.38,0v.12l.18.05-.38-.08,0,.13-.28.27-2.51-2.25-.34,1.63-.13.34.62,2.61-.06.1,0-1.24v-.11l-.25-5.66.16.88-1.2-.25-44.49-1-.05-.59.33.69-.51-.54-.28-.28-.25-.64-.18-.13,1.12.37.36.11.1.54h0l0,.53-4.53-5.6h-.41l.05-.79.65.16.92-3.86.34,0,.19.49h0l0-.33.13-.15,1-.07-.29.23,6.17,5.46v0l-.21-.19-2.63-2.3-.49-.53-.1-.22.66,3,.85.48h-.12l.77.88-.38-.71.29.22.07,0-1.19.84-.09,0,.26.1,0-.92v.31l-.05-.09-.63.11h.23l-.25-.61-2.27-.84,1.44,1,.46-.23.12,0,.19.66.71-1.93h0l.36.72.73,1,0,.58-.18.44.05,0-.77,1.9-2.17-1.14.22,1.2,6,18.16-.53.14-1.12-.63,0,1.43h.48l1.3.81,3.64,3.78-15-10.29-.07-.12-.27.48.08-.13v0l-.1-.08,11.65-13.1h.11l.69,1.73-.32-.25L595.12,236l.71.13h-.06l-.4-.71-.39-.64-1.37-1,.14-1.07.59-.79-.59-1.15h-.13l-.42.53-.71-.15h0l1.08-1,.13.67-.11-.28,0-.15-3.3-1.46.56.83-.07.48" transform="translate(-135.53 -8.64)"/><path class="cls-11" d="M591.28,231.92l0-.39-.67-.08.86.12-.16-.68L570.9,208.65l.24-.16.23,0,1.58,2.37v0l-.21,0-.13.1-.67-.51.27-1.54.16-.81-.17-.16-1.16,0,.61.51-.12.42,0-.43,0-.09-.09,0-1.77,4.07h0l.74-1.05.09-.13.1,0-.68,1,.46-.31-1.09-3.16,0,0-2.55-2.6.17-.27-.78-4.74.33.43-2-1.43,1.89,4.82.05-.07.06-.46-1.32-1.42,0,.06-.15-.34.61,1.31.55.25-.06.14.45-.42,1.4.23-.19-.4.19.08-.51-.56,1.2,1.3,1,.44,0-.13-1.33,2.38.13.64-.09-.2,1.48-1.26.89,1.72.19-.06.31-.17-.24.45-.37-.12-1.7,1.94-.1-.18h0l.19.15-.53.2.22,1.85,0-.11,1.36,16,1.83,3-.43.19.24-.11-.21.2-.34-.45.4-.23.85-.75-1.71-16.62-.13-.08.08.06,0-.11-1.62-.68-2.56-3.6.28.15,1.14,1.24-4.05-6.14,1.5-1.31-1.27.78.21,0,0-.41-1-.56L562,199l.4.18-.27-.4-1.05-2.34,0,0,2.12-7.23.06-.05,1-.09-.11.87-.92,0-1.16-.05,1.9-3.22-.21.42,0,.08-2,.77.46,0,.65-2.76-.9.36.3-.13-.1-.3,1.49,2.23,1.6.29-.06.42-.46.16-1.28-2.56,4.55-3.09,2.27-9.85-3.18,1.87.18.09.28-1.53.35.71-.1-.29-.52.05.07.22-2.2-2.59,4.88,6.35-.12.06h0l.11.16.06-.16.15-.23-.44-.15-.27-2.42,0-.1-.85,1,1.65.79,7.2-1.58v-.19l-1.14.49-.12-1.07.39,1,1.31,0,.25-.2-.41-.81.44-1,0-.14-1.65-.66.1.18.24.06-.15-.26-.79-2.62-.21.32-.23.33-2.49,0-1.3-.15,1.33-3.09.34.29h0v0h0l-.3-.69,1.59-1,0-.27-.39.61.13.31v0l-.29,0-.91-.82.11-.08.05.29v-.68l.33-.17-.35-.11.15.12-.48.05,1.41-5.58.24,24.53-.18.53-3-.92.15.73v.13l0-.09-.16-.38.1-1.12-.16-1,0-.31-.28-.37-.41-1.07,3.67,7.45,0,.15,2.54-1,.17.08.24-2.92-.08-.15.67.22h0l-.23-.48-.42-1.33h-.15v0l0,0,3.35-.64-.2-.53.18-.72,19.41,8.86,17.68,38.45,22.38-43-2-6.15.78-.32-.71-.08.17,2.68,0,.59,0,.07L646,201.61l-.06.26.42-.51h0l-.05-.06,0,.08.23-1.36-.08-.51v-.2l-.11,0,.2.65-1.81-.52.09-.68-.1.06-.19-.22.06-.06.18,0,.63-.5v0l-.55.37.33.43,0-.38.62.22-.4-.69-.1,2.32-9.62-3.59.14-.15-.07.69-.14-.57-.69,1.22,0-.95,1.06-.09-.71-.31-.39.55-.13-.23.25.61.69.14v0l-.05-.36v-.44l16.26,13.22-.34.08-.23,3.29-.34-.05.18-.11-.64-.11-.07-4.11-1.15-.1h0l.14-.16-.17-1.07.36,0-10.92-1.59-5.18,8.4.32.53L634,215l-.05-.29-.07-.1-.27.53h.75l0-1-.9-1.91-.13.17.61,3.56,0-.21.09,0h0l-.24-.12,0-.11.43-.21-.3-.35,0,0,.15-1.19-.14-.67-.26.09.12.18L632,216.92h0l-.19-.27,2.22-4.45,1.17,1.75-.22-.57.12-.08.33.05.5,1,.63,1.59,1-.29-33.33,42.74,1.66-2.72,0,.09.12-.23.23-.49,1.85-.61,0-.42.89.45.21-.82-1-4.67-.37.07-.56-1.21.19-.21-.26-.6,0,0v0h-.06l.3-.46L607,247l1.12.15-.14-.61h0v.13l1,.65v-.24l-.41-.55.12-.36,0,.58-.21.24-.29-.07.48-.34-3.42,1,.28,1.57,0-1.37-.44-.58h-.08l.29.81.27.21-.14.07.17,1.06-.17-.45.42.32.62.17-2.54-.54h.11l.19,1.07-.12,1L469.35,352.75l.56-.07-.94,5,.28-.14.84,1-.91,3.27,0,0,0-.24-1.38-2-2,.16.11-.24-.23-.23-.27-.4.5,1-.58-.25.88,1.34,5.24-8.95.68-.35-.28-.32-.29,0-.24.57.52-.15-.06-.2-5.15,2.75.34-.56,0-.54,3.21-.83-.12,0-1.11-5.06.14-.38.26.08-.46.32-.34-.73.26.51,4.45-3.61,5.31,40.5-.08-.08.45-1.09.11-.38.42.62-2.27-2.4,1.43.69-.33-.33,4.84-4.66-.52-.31-.15,0,2.62,2.9-4.18,5.88,6.25,5.72,2,2.47-.1.08.51,2.38.27-.49,1.34-.22-.16-.08.11-.14,2.7.72-.44.08.29,1.31,5.85,4.1-.53-.34-.57-.69-.43.59,1.68-.25-.5.13-.54.41.23-2.09-1.73-4.07.09-.29,8.14-4.9-.06.11.29,0-2.54,1.07.59,1.31,1.71-.17.1-.42.08.22.74,1.77.07-.89-2.25-1.33-.12-.41-2.81-5,.55-.07-.36-.29.38-.36L501,384l-.37.49.2.24.75,9-.86-1.05.35.44-1.38-.72-.11-.77-.39-1.05.17,0,.62-.88.06-.2.18-.11h.26l.37.62-.93-5-.34,1.7v1.61l.08-.15.29.28-2,2.92.05.77-.11,0,.77-.07-.7.11.18.69-.37-.33-.58-.59,5.72-2.74,0-.08v0l-.77,1.58,3.18-1.82.05-.13-.11-.92-.1.21,2.84-1.39-.18.79,2,0-.06,1.63.23-.24.23.75-.3-1.14.78,2.85-.07.5.19,1.46.3-.08-.1.27.28-.47.08-.11v.1l1.26,4.23-.08.31-.76-.69-.39.49-.05,0-.41-5.45-.19.86.43.13-.66.07-.62.59.07,0,2.21-.46-.5-.87-.65-.82-.1-.18.57-.13-.05.38h.17l-.09.48.22-.35-.1.55-.66-1.28,0-.09-.26-.63.21-.38-.13-.51,4.29-2.24,1.45,1.27,0-.25,0,0-.09.5.49,1.15-4.1-6.44.07.08-.14.33,1.15,2.9-.15-.05.32.83-5.65,2-1.58-1.44-.07-.09.13-.55,1.29-8.16-4.19,1.26h-.11l0,0,.15-1.47.37-.8-1.51,1.33-.55.07h-.14l3.91,7.6.16-.09.33.52-1.23,2.29,0,.07-.49-.13.15-.29-.45-.35-.84.94-.06,1-1.07-2.49.93-2-.25-.13.06-.48v0l-.29-.12v.21l-.55.27-.16-.07.18.25-.09.42L501,388l0,.45-.44-.44.84-.32.4-1.35h.07l9.56-22.88-.31.43,1.48,1.07-.35.39.08-.06.61.72.4-.37-.24-.55.26,0,1.45-1.8.65.16.18,1.08-1-4.22,0,.92.76,1.13.26,0,.66.39,0-.73-1.46-3,4.78,3.58.08.07,2.21.73h.93l.59.41-.23-.29-2.64,4.72-.41.19.11.09-.54-.93.54-.58.25,1.45-.22.16-.18-.09-.1.5.26.22.22-.14-.16.12-1.08-.72-.48.29.85.68.51.12-.18-.29.06-.08-.31.55,1.44.65L562.37,413l.15-.1-.55-.46-.62.32,0,.05-1.79.09-.22,1.91-.32-2.69h-.34v-.07l.71-2.12,5.46-9,.12-.64.36.5-.23,1.12-.66-.64h-.12l0-.54-.49-.2.1.35.08.16-.67,3.5-.16-.45.27-.66.92-3.8.85.8-.67.16-1.17.09.68.24-.08.26.54-.18-.26-4.88v0l-.11.09-1.46-1-1.12.83-.81.42-.12,0h0l-2.4-8.72,1.08,7.7,0-1.77-.25-1.09-1,0L558,392l1,2.35-.29-.33-8.15-3.12.19.44,2.75.47.71-1.76-1.85-.28-.53-1h0" transform="translate(-135.53 -8.64)"/><rect class="cls-12" y="162.25" width="107.36" height="21.19"/><rect class="cls-13" x="430.9" y="406.09" width="131.57" height="17.08"/><g class="cls-14"><ellipse class="cls-15" cx="424.93" cy="292.62" rx="315.91" ry="42.31" transform="translate(-161.06 535.53) rotate(-63.73)"/><ellipse class="cls-16" cx="424.93" cy="292.62" rx="298.83" ry="56.75" transform="translate(-148.94 556.11) rotate(-66.38)"/><ellipse class="cls-17" cx="424.93" cy="292.62" rx="278.78" ry="77.19" transform="translate(-132.07 581.56) rotate(-69.77)"/><ellipse class="cls-18" cx="424.93" cy="292.62" rx="256.35" ry="106.51" transform="translate(-109.03 611.77) rotate(-74)"/><ellipse class="cls-19" cx="424.93" cy="292.62" rx="232.73" ry="148.87" transform="translate(-78.92 645.28) rotate(-79)"/><circle class="cls-20" cx="289.41" cy="283.98" r="209.67"/></g><rect class="cls-21" x="410.81" y="278.5" width="28.49" height="28.49" transform="translate(195.97 -223.45) rotate(45)"/></svg>