<svg id="Layer_1" data-name="Layer 1" xmlns="http://www.w3.org/2000/svg" viewBox="0 0 514.34 457.23"><defs><style>.cls-1,.cls-10,.cls-11,.cls-13,.cls-14,.cls-2,.cls-3,.cls-4,.cls-5,.cls-6,.cls-7,.cls-8,.cls-9{fill:none;stroke-miterlimit:10;}.cls-1,.cls-10,.cls-2,.cls-3,.cls-4,.cls-5,.cls-6,.cls-7,.cls-8,.cls-9{stroke:#010101;}.cls-1,.cls-11,.cls-2,.cls-3,.cls-4,.cls-5,.cls-6,.cls-7,.cls-8,.cls-9{stroke-width:0.6px;}.cls-2{stroke-dasharray:5.82 4.37;}.cls-3{stroke-dasharray:5.93 4.44;}.cls-4{stroke-dasharray:6.11 4.59;}.cls-5{stroke-dasharray:5.74 4.31;}.cls-6{stroke-dasharray:5.97 4.48;}.cls-7{stroke-dasharray:6.11 4.59;}.cls-8{stroke-dasharray:5.89 4.42;}.cls-9{stroke-dasharray:5.84 4.38;}.cls-10{stroke-width:1.2px;}.cls-11{stroke:#f5eb68;isolation:isolate;}.cls-12{fill:#010101;}.cls-13,.cls-14{stroke:#fff;}.cls-13{stroke-width:2.39px;}.cls-14{stroke-width:8.97px;}</style></defs><title>cosmo_1</title><line class="cls-1" x1="289.35" y1="298.12" x2="290.84" y2="300.71"/><line class="cls-2" x1="293.03" y1="304.49" x2="378.58" y2="452.6"/><line class="cls-1" x1="379.67" y1="454.49" x2="381.16" y2="457.08"/><line class="cls-1" x1="128.61" y1="19.81" x2="130.1" y2="22.4"/><line class="cls-3" x1="132.32" y1="26.25" x2="224.58" y2="185.97"/><line class="cls-1" x1="225.69" y1="187.9" x2="227.18" y2="190.49"/><line class="cls-1" x1="229.22" y1="295.8" x2="227.72" y2="298.39"/><line class="cls-4" x1="225.43" y1="302.36" x2="167.71" y2="402.29"/><line class="cls-1" x1="166.56" y1="404.28" x2="165.07" y2="406.87"/><line class="cls-1" x1="354.26" y1="79.29" x2="352.77" y2="81.88"/><line class="cls-5" x1="350.61" y1="85.61" x2="291.38" y2="188.18"/><line class="cls-1" x1="290.3" y1="190.04" x2="288.8" y2="192.63"/><line class="cls-1" x1="313.72" y1="212.84" x2="316.31" y2="211.35"/><line class="cls-6" x1="320.19" y1="209.11" x2="454.04" y2="131.82"/><line class="cls-1" x1="455.98" y1="130.7" x2="458.57" y2="129.21"/><line class="cls-1" x1="56.87" y1="361.14" x2="59.46" y2="359.64"/><line class="cls-7" x1="63.43" y1="357.35" x2="200.43" y2="278.25"/><line class="cls-1" x1="202.41" y1="277.11" x2="205" y2="275.61"/><line class="cls-1" x1="311.64" y1="275.12" x2="314.23" y2="276.61"/><line class="cls-8" x1="318.06" y1="278.82" x2="432.25" y2="344.79"/><line class="cls-1" x1="434.17" y1="345.9" x2="436.75" y2="347.39"/><line class="cls-1" x1="73.01" y1="137.28" x2="75.6" y2="138.77"/><line class="cls-9" x1="79.39" y1="140.96" x2="201.31" y2="211.38"/><line class="cls-1" x1="203.2" y1="212.48" x2="205.79" y2="213.97"/><circle class="cls-10" cx="257.36" cy="241.86" r="175.44"/><path class="cls-11" d="M443.61,401.48c-7.54-4-10.67,9.73-19.69,11.73s-28.26,2.59-37.93-6.08-15.81-36.25-22.49-60S344.29,277.47,347,250.75s15.85-56.94,30.42-73.47,36.4-16.19,58.65-31.22,72.62-83,89.67-69,22.31,121.48,24,162.49c1.68,40.72,30.12,42.15-24.34,110.91-13.2,16.68-23,27.45-30.69,40.85s-12.78,48.59-20.5,48.44-23-34.3-30.58-38.29" transform="translate(-176.75 -74.89)"/><path class="cls-11" d="M446.31,382.22c-6.81-3.56-9.64,8.68-17.79,10.47s-27.76,9.16-36.5,1.42-15.68-31.78-21.72-53-20.94-64.64-18.5-88.5,21.61-55.76,34.77-70.52,32.89-14.46,53-27.88S506.65,74.3,522,86.81,542.25,201,542.2,237.64s-14.61,77.2-22,99-20.46,34.46-27.4,46.42-11.89,33.43-18.86,33.3-20.8-30.61-27.61-34.16" transform="translate(-176.75 -74.89)"/><path class="cls-11" d="M446.35,378.39c-6.46-3.32-9.16,8.13-16.89,9.8s-26.37,8.59-34.66,1.35S379.92,359.82,374.2,340s-19.86-60.45-17.53-82.77,20.54-52.16,33-66S421,177.69,440,165.12s71.24-82,81.17-72.75,16.33,116.51,16.26,150.76-13.9,72.21-21,92.62-19.45,32.24-26,43.43-11.31,31.28-17.93,31.16-19.73-28.63-26.2-31.95" transform="translate(-176.75 -74.89)"/><path class="cls-11" d="M446.85,373.45c-5.89-3-8.34,7.42-15.39,8.95s-24,7.84-31.59,1.23-13.56-27.15-18.77-45.29-18.1-55.22-16-75.6,18.71-47.65,30.11-60.26,28.46-12.37,45.85-23.85,68.49-87.47,78.1-78.46c11.07,10.36,10.76,118.44,10.69,149.72s-12.66,66-19.08,84.61S493.07,364,487.06,374.17s-10.3,28.57-16.33,28.46-18-26.15-23.88-29.18" transform="translate(-176.75 -74.89)"/><path class="cls-11" d="M447.32,347.51c-5.05-2.12-7.21,5.28-13.27,6.39s-20.69,5.65-27.15,1S395.36,335.8,391,323s-15.3-38.93-13.39-53.34,16.3-33.74,26.15-42.71,24.52-8.86,39.53-17.05,54.48-53.38,60.15-49.52c7.23,4.94,16,77.36,15.84,99.46s-11.18,46.66-16.79,59.86-15.36,20.88-20.57,28.13-9,20.23-14.17,20.18-15.34-18.39-20.39-20.51" transform="translate(-176.75 -74.89)"/><path class="cls-11" d="M448.06,356.45c-8.14-.62-1.89,18.91-11.73,11-15.84-12.79-24.86,12.31-31.81,7.06S387,334.6,382.26,320.12s-10.75-39.59-8.72-55.9,17.44-38.16,28-48.29,26.3-10,42.39-19.23,58.79-73.5,67.28-67.7c6.3,4.29,14.52,99.34,14.35,124.35s-11.92,52.79-17.91,67.72-11.29,28.17-16.87,36.36-15.09,32-20.62,30.61c-14.36-3.68-16.67-29.19-22.09-31.59" transform="translate(-176.75 -74.89)"/><rect class="cls-12" x="10.7" y="41.18" width="45.43" height="8.97"/><rect class="cls-12" x="464.1" y="10.4" width="31.68" height="2.99"/><rect class="cls-12" x="430.33" y="17.87" width="40.35" height="1.19"/><rect class="cls-12" x="42.68" y="19.96" width="45.43" height="8.97"/><polyline class="cls-13" points="0.33 254.51 51.64 239.91 102.95 254.51"/><polyline class="cls-13" points="102.95 254.51 154.26 239.91 205.56 254.51"/><polyline class="cls-13" points="205.56 254.51 256.88 239.91 308.18 254.51"/><polyline class="cls-13" points="308.18 254.51 359.49 239.91 410.8 254.51"/><polyline class="cls-13" points="411.4 254.51 462.71 239.91 514.02 254.51"/><polyline class="cls-13" points="0.33 259.95 51.64 245.36 102.95 259.95"/><polyline class="cls-13" points="102.95 259.95 154.26 245.36 205.56 259.95"/><polyline class="cls-13" points="205.56 259.95 256.88 245.36 308.18 259.95"/><polyline class="cls-13" points="308.18 259.95 359.49 245.36 410.8 259.95"/><polyline class="cls-13" points="411.4 259.95 462.71 245.36 514.02 259.95"/><polyline class="cls-13" points="0.33 265.39 51.64 250.8 102.95 265.39"/><polyline class="cls-13" points="102.95 265.39 154.26 250.8 205.56 265.39"/><polyline class="cls-13" points="205.56 265.39 256.88 250.8 308.18 265.39"/><polyline class="cls-13" points="308.18 265.39 359.49 250.8 410.8 265.39"/><polyline class="cls-13" points="411.4 265.39 462.71 250.8 514.02 265.39"/><polyline class="cls-13" points="0.33 270.84 51.64 256.24 102.95 270.84"/><polyline class="cls-13" points="102.95 270.84 154.26 256.24 205.56 270.84"/><polyline class="cls-13" points="205.56 270.84 256.88 256.24 308.18 270.84"/><polyline class="cls-13" points="308.18 270.84 359.49 256.24 410.8 270.84"/><polyline class="cls-13" points="411.4 270.84 462.71 256.24 514.02 270.84"/><polyline class="cls-13" points="0.33 276.28 51.64 261.69 102.95 276.28"/><polyline class="cls-13" points="102.95 276.28 154.26 261.69 205.56 276.28"/><polyline class="cls-13" points="205.56 276.28 256.88 261.69 308.18 276.28"/><polyline class="cls-13" points="308.18 276.28 359.49 261.69 410.8 276.28"/><polyline class="cls-13" points="411.4 276.28 462.71 261.69 514.02 276.28"/><polyline class="cls-13" points="0.33 281.72 51.64 267.13 102.95 281.72"/><polyline class="cls-13" points="102.95 281.72 154.26 267.13 205.56 281.72"/><polyline class="cls-13" points="205.56 281.72 256.88 267.13 308.18 281.72"/><polyline class="cls-13" points="308.18 281.72 359.49 267.13 410.8 281.72"/><polyline class="cls-13" points="411.4 281.72 462.71 267.13 514.02 281.72"/><polyline class="cls-13" points="0.33 287.17 51.64 272.57 102.95 287.17"/><polyline class="cls-13" points="102.95 287.17 154.26 272.57 205.56 287.17"/><polyline class="cls-13" points="205.56 287.17 256.88 272.57 308.18 287.17"/><polyline class="cls-13" points="308.18 287.17 359.49 272.57 410.8 287.17"/><polyline class="cls-13" points="411.4 287.17 462.71 272.57 514.02 287.17"/><polyline class="cls-13" points="0.33 216.49 51.64 201.89 102.95 216.49"/><polyline class="cls-13" points="102.95 216.49 154.26 201.89 205.56 216.49"/><polyline class="cls-13" points="205.56 216.49 256.88 201.89 308.18 216.49"/><polyline class="cls-13" points="308.18 216.49 359.49 201.89 410.8 216.49"/><polyline class="cls-13" points="411.4 216.49 462.71 201.89 514.02 216.49"/><polyline class="cls-13" points="0.33 221.93 51.64 207.33 102.95 221.93"/><polyline class="cls-13" points="102.95 221.93 154.26 207.33 205.56 221.93"/><polyline class="cls-13" points="205.56 221.93 256.88 207.33 308.18 221.93"/><polyline class="cls-13" points="308.18 221.93 359.49 207.33 410.8 221.93"/><polyline class="cls-13" points="411.4 221.93 462.71 207.33 514.02 221.93"/><polyline class="cls-13" points="0.33 227.37 51.64 212.78 102.95 227.37"/><polyline class="cls-13" points="102.95 227.37 154.26 212.78 205.56 227.37"/><polyline class="cls-13" points="205.56 227.37 256.88 212.78 308.18 227.37"/><polyline class="cls-13" points="308.18 227.37 359.49 212.78 410.8 227.37"/><polyline class="cls-13" points="411.4 227.37 462.71 212.78 514.02 227.37"/><polyline class="cls-13" points="0.33 232.81 51.64 218.22 102.95 232.81"/><polyline class="cls-13" points="102.95 232.81 154.26 218.22 205.56 232.81"/><polyline class="cls-13" points="205.56 232.81 256.88 218.22 308.18 232.81"/><polyline class="cls-13" points="308.18 232.81 359.49 218.22 410.8 232.81"/><polyline class="cls-13" points="411.4 232.81 462.71 218.22 514.02 232.81"/><polyline class="cls-13" points="0.33 238.26 51.64 223.66 102.95 238.26"/><polyline class="cls-13" points="102.95 238.26 154.26 223.66 205.56 238.26"/><polyline class="cls-13" points="205.56 238.26 256.88 223.66 308.18 238.26"/><polyline class="cls-13" points="308.18 238.26 359.49 223.66 410.8 238.26"/><polyline class="cls-13" points="411.4 238.26 462.71 223.66 514.02 238.26"/><polyline class="cls-13" points="0.33 243.7 51.64 229.1 102.95 243.7"/><polyline class="cls-13" points="102.95 243.7 154.26 229.1 205.56 243.7"/><polyline class="cls-13" points="205.56 243.7 256.88 229.1 308.18 243.7"/><polyline class="cls-13" points="308.18 243.7 359.49 229.1 410.8 243.7"/><polyline class="cls-13" points="411.4 243.7 462.71 229.1 514.02 243.7"/><polyline class="cls-13" points="0.33 249.14 51.64 234.55 102.95 249.14"/><polyline class="cls-13" points="102.95 249.14 154.26 234.55 205.56 249.14"/><polyline class="cls-13" points="205.56 249.14 256.88 234.55 308.18 249.14"/><polyline class="cls-13" points="308.18 249.14 359.49 234.55 410.8 249.14"/><polyline class="cls-13" points="411.4 249.14 462.71 234.55 514.02 249.14"/><circle class="cls-14" cx="386.24" cy="365.02" r="38.11"/><rect class="cls-12" x="68.98" y="274.01" width="47.82" height="47.82"/></svg>