<svg id="Layer_1" data-name="Layer 1" xmlns="http://www.w3.org/2000/svg" viewBox="0 0 552.81 517.8"><defs><style>.cls-1,.cls-10,.cls-11,.cls-13,.cls-2,.cls-3,.cls-4,.cls-5,.cls-6,.cls-7,.cls-8,.cls-9{fill:none;stroke-miterlimit:10;}.cls-1,.cls-10,.cls-11,.cls-2,.cls-3,.cls-4,.cls-5,.cls-6,.cls-7,.cls-8,.cls-9{stroke:#010101;}.cls-1,.cls-2,.cls-3,.cls-4,.cls-5,.cls-6,.cls-7,.cls-8,.cls-9{stroke-width:0.71px;}.cls-2{stroke-dasharray:13.77 10.33;}.cls-3{stroke-dasharray:14.85 11.14;}.cls-4{stroke-dasharray:14.49 10.87;}.cls-5{stroke-dasharray:14.81 11.11;}.cls-6{stroke-dasharray:14.14 10.6;}.cls-7{stroke-dasharray:14.48 10.86;}.cls-8{stroke-dasharray:13.94 10.46;}.cls-9{stroke-dasharray:14.87 11.15;}.cls-10{stroke-width:2.12px;}.cls-11,.cls-13{stroke-width:1.06px;}.cls-12{fill:#010101;}.cls-13{stroke:#ef3d5b;}</style></defs><title>cosmo_3</title><line class="cls-1" x1="304.64" y1="329.51" x2="308.17" y2="335.64"/><line class="cls-2" x1="313.34" y1="344.58" x2="407.16" y2="507.03"/><line class="cls-1" x1="409.75" y1="511.5" x2="413.28" y2="517.62"/><line class="cls-1" x1="114.42" y1="0.18" x2="117.96" y2="6.3"/><line class="cls-3" x1="123.53" y1="15.95" x2="224.75" y2="191.2"/><line class="cls-1" x1="227.53" y1="196.02" x2="231.07" y2="202.15"/><line class="cls-1" x1="233.48" y1="326.77" x2="229.94" y2="332.89"/><line class="cls-4" x1="224.51" y1="342.3" x2="163.82" y2="447.37"/><line class="cls-1" x1="161.11" y1="452.08" x2="157.57" y2="458.2"/><line class="cls-1" x1="381.45" y1="70.56" x2="377.91" y2="76.69"/><line class="cls-5" x1="372.36" y1="86.31" x2="310.31" y2="193.75"/><line class="cls-1" x1="307.53" y1="198.56" x2="303.99" y2="204.68"/><line class="cls-1" x1="333.47" y1="228.6" x2="339.6" y2="225.06"/><line class="cls-6" x1="348.78" y1="219.76" x2="494.17" y2="135.81"/><line class="cls-1" x1="498.76" y1="133.16" x2="504.89" y2="129.63"/><line class="cls-1" x1="29.53" y1="404.09" x2="35.66" y2="400.55"/><line class="cls-7" x1="45.06" y1="395.12" x2="193.99" y2="309.13"/><line class="cls-1" x1="198.69" y1="306.42" x2="204.82" y2="302.88"/><line class="cls-1" x1="331.02" y1="302.29" x2="337.14" y2="305.83"/><line class="cls-8" x1="346.19" y1="311.06" x2="468.42" y2="381.67"/><line class="cls-1" x1="472.95" y1="384.28" x2="479.07" y2="387.82"/><line class="cls-1" x1="48.63" y1="139.18" x2="54.76" y2="142.71"/><line class="cls-9" x1="64.42" y1="148.29" x2="194.8" y2="223.61"/><line class="cls-1" x1="199.63" y1="226.4" x2="205.76" y2="229.94"/><circle class="cls-10" cx="265.45" cy="264.11" r="36.53"/><path class="cls-11" d="M359.05,161.24c-16.8,7.11-12.63,13.16-25.26,26.32l-25.26,26.32C295.9,227,290.12,223.3,283.26,240.2c-6.76,16.68,0,18,0,36v36c0,18-6.82,19.34,0,36s12.63,12.86,25.26,25.71l25.27,25.72c12.63,12.86,8.65,18.73,25.26,25.72,17,7.16,18.45.23,36.91.45l36.91.46c18.46.22,19.78,7.31,36.91.45S482.87,413.86,496,401l26.17-25.72c13.09-12.86,19.11-8.79,26.17-25.72,7.13-17.1,0-18.53,0-37.06V275.45c0-18.53,7.13-20,0-37.06-7-16.94-13.08-12.86-26.16-25.72L496,187c-13.08-12.85-9.18-18.79-26.17-25.71s-18.45,0-36.9,0-18.61,2.32-36.92,0C377.28,158.87,376.05,154,359.05,161.24Z" transform="translate(-148.25 -31.14)"/><path class="cls-11" d="M557.67,293.76c0,10.63-4.71,20.59-7,30.53-2.38,10.26-2.6,21.26-7.15,30.5s-13.22,16.27-19.77,24.31S512.19,397,504,403.41s-18.87,8.89-28.34,13.38c-9.29,4.4-18,11.14-28.3,13.43-10,2.22-20.7-.1-31.33-.1s-21.38,2.32-31.34.1c-10.29-2.29-19-9-28.3-13.43-9.47-4.49-20.2-7-28.34-13.38s-13.19-16.25-19.75-24.31-15.16-14.93-19.77-24.31-4.77-20.24-7.14-30.5c-2.31-9.94-7-19.9-7-30.53s4.71-20.59,7-30.53c2.37-10.26,2.59-21.26,7.14-30.5s13.22-16.26,19.77-24.31,11.55-17.88,19.75-24.31,18.87-8.89,28.34-13.38c9.29-4.39,18-11.13,28.3-13.43,10-2.22,20.7.1,31.34.1s21.37-2.32,31.33-.1c10.29,2.3,19,9,28.31,13.44,9.46,4.48,20.19,7,28.33,13.37s13.2,16.25,19.76,24.31,15.15,14.93,19.76,24.31,4.77,20.24,7.15,30.5C553,273.17,557.67,283.13,557.67,293.76Z" transform="translate(-148.25 -31.14)"/><rect class="cls-12" x="427.26" y="36.78" width="88.78" height="5.31"/><rect class="cls-12" x="11.57" y="59.07" width="54.57" height="8.49"/><polygon class="cls-12" points="531.48 413.98 535.96 406.21 527 406.21 531.48 413.98"/><rect class="cls-12" x="531.59" y="93.37" width="21.22" height="1.77"/><rect class="cls-12" y="115.66" width="66.29" height="2.12"/><path class="cls-13" d="M514.17,295.42c0,3.85-10.81,7-11.27,10.71s9.25,9.47,8.34,13.11-12.17,4.12-13.53,7.64,6.66,11.42,4.88,14.75-12.81,1-15,4.12,3.71,12.68,1.17,15.49-12.67-2.09-15.53.41.59,13.19-2.55,15.33-11.8-5-15.19-3.3-2.54,13-6.11,14.29-10.26-7.71-14-6.81-5.53,12-9.33,12.43-8.14-9.91-12-9.91-8.25,10.34-12,9.91-5.68-11.55-9.33-12.43-10.44,8.12-14,6.81-2.76-12.56-6.12-14.29-12.06,5.42-15.18,3.29.3-12.84-2.55-15.33-13,2.41-15.54-.4,3.36-12.39,1.17-15.49-13.18-.77-15-4.12,6.25-11.2,4.88-14.75S317.91,323,317,319.24s8.81-9.31,8.34-13.11-11.26-6.86-11.26-10.71,10.81-7,11.26-10.7-9.25-9.47-8.34-13.12,12.18-4.12,13.54-7.63-6.66-11.43-4.88-14.76,12.81-1,15-4.11-3.72-12.68-1.18-15.49,12.67,2.08,15.54-.41-.6-13.19,2.55-15.33,11.8,5,15.18,3.3,2.55-13,6.12-14.29,10.25,7.71,14,6.81,5.52-12,9.33-12.43,8.13,9.91,12,9.91,8.26-10.35,12-9.91,5.67,11.55,9.33,12.43,10.44-8.12,14-6.81,2.76,12.56,6.11,14.29,12.06-5.42,15.19-3.3-.31,12.85,2.55,15.33,13-2.4,15.53.41S485.41,242,487.6,245.1s13.19.77,15,4.12-6.26,11.2-4.88,14.75,12.6,3.93,13.53,7.63-8.8,9.32-8.34,13.12S514.17,291.58,514.17,295.42Z" transform="translate(-148.25 -31.14)"/></svg>